<svg width="24" height="24" viewBox="0 0 24 24" fill="none" xmlns="http://www.w3.org/2000/svg">
<path d="M11.8998 9.61699C12.9665 9.66699 13.2415 10.5753 13.2582 11.0003H14.7498C14.6832 9.35033 13.5082 8.34199 11.8748 8.34199C10.0332 8.34199 8.6665 9.50033 8.6665 12.117C8.6665 13.7337 9.4415 15.6503 11.8665 15.6503C13.7165 15.6503 14.7082 14.2753 14.7332 13.192H13.2415C13.2165 13.6837 12.8665 14.342 11.8832 14.392C10.7915 14.3587 10.3332 13.5087 10.3332 12.117C10.3332 9.70866 11.3998 9.63366 11.8998 9.61699ZM11.9998 3.66699C7.39984 3.66699 3.6665 7.40033 3.6665 12.0003C3.6665 16.6003 7.39984 20.3337 11.9998 20.3337C16.5998 20.3337 20.3332 16.6003 20.3332 12.0003C20.3332 7.40033 16.5998 3.66699 11.9998 3.66699ZM11.9998 18.667C8.32484 18.667 5.33317 15.6753 5.33317 12.0003C5.33317 8.32533 8.32484 5.33366 11.9998 5.33366C15.6748 5.33366 18.6665 8.32533 18.6665 12.0003C18.6665 15.6753 15.6748 18.667 11.9998 18.667Z" fill="#F5F5F3"/>
</svg>
