<svg width="92" height="92" viewBox="0 0 92 92" fill="none" xmlns="http://www.w3.org/2000/svg">
<mask id="mask0" mask-type="alpha" maskUnits="userSpaceOnUse" x="14" y="23" width="50" height="51">
<path fill-rule="evenodd" clip-rule="evenodd" d="M14.0566 23.6406H63.5714V73.1588H14.0566V23.6406Z" fill="white"/>
</mask>
<g mask="url(#mask0)">
<path fill-rule="evenodd" clip-rule="evenodd" d="M29.5409 28.4368C28.1385 28.4368 27.2345 28.4368 27.078 28.4432C24.7205 28.5422 22.5451 29.5421 20.9766 31.2543C19.5135 32.8547 18.7596 34.8992 18.8587 37.0203C18.8587 46.2618 18.8619 60.1321 18.8842 60.8924C19.2484 65.3167 23.3948 68.6996 28.1417 68.3354C36.9265 68.3482 49.9406 68.377 50.5508 68.3546C52.8987 68.2588 55.0773 67.2621 56.6458 65.5531C58.112 63.959 58.8659 61.9146 58.7733 59.8031C58.7701 59.7679 58.7701 59.7328 58.7701 59.6977C58.7733 50.5615 58.7733 36.7009 58.7509 35.9565C58.3899 31.5099 54.2244 28.0854 49.4519 28.4592C42.8522 28.4496 33.847 28.4368 29.5409 28.4368ZM27.3012 73.1588C20.5481 73.162 14.6575 67.987 14.1017 61.1988C14.0921 61.0678 14.0602 60.6685 14.0698 37.1287C13.9164 33.8352 15.1111 30.5641 17.4431 28.0181C19.8773 25.3603 23.2346 23.811 26.8986 23.6545C27.3427 23.6226 42.7016 23.6609 49.2789 23.6737C56.4664 23.169 62.9543 28.5037 63.5325 35.6624C63.5581 36.0106 63.5677 44.0766 63.5613 59.6495C63.6955 63.0229 62.4943 66.2716 60.1752 68.7952C57.7378 71.4498 54.3773 72.9927 50.7164 73.1429C50.2692 73.1748 34.9039 73.1333 28.317 73.1205C27.9784 73.146 27.6398 73.1588 27.3012 73.1588Z" fill="#A4646E"/>
</g>
<path fill-rule="evenodd" clip-rule="evenodd" d="M74.1707 66.284C72.73 66.284 71.3085 65.7889 70.1361 64.8274L59.6552 56.2152C58.6329 55.375 58.486 53.864 59.3261 52.8418C60.1631 51.8228 61.6741 51.6695 62.6963 52.5128L73.1741 61.125C73.88 61.7 74.5892 61.4636 74.8639 61.3295C75.1386 61.2017 75.7743 60.8024 75.7743 59.8952L75.8127 36.4192C75.8159 35.512 75.177 35.1127 74.9023 34.9817C74.6307 34.8539 73.912 34.6143 73.2124 35.1893L62.6931 43.7983C61.6645 44.6385 60.1599 44.4883 59.3229 43.4597C58.4828 42.4375 58.6361 40.9297 59.6584 40.0928L70.1777 31.4806C72.1071 29.8993 74.7042 29.5895 76.9563 30.6532C79.2084 31.7233 80.6075 33.9339 80.6043 36.4256L80.566 59.9015C80.5628 62.3932 79.1605 64.6038 76.9116 65.6643C76.0299 66.0828 75.0971 66.284 74.1707 66.284Z" fill="#A4646E"/>
</svg>
