<svg width="91" height="92" viewBox="0 0 91 92" fill="none" xmlns="http://www.w3.org/2000/svg">
<mask id="mask0" mask-type="alpha" maskUnits="userSpaceOnUse" x="13" y="14" width="64" height="64">
<path fill-rule="evenodd" clip-rule="evenodd" d="M13.9043 14.0566H76.9711V77.7852H13.9043V14.0566Z" fill="white"/>
</mask>
<g mask="url(#mask0)">
<path fill-rule="evenodd" clip-rule="evenodd" d="M31.7567 18.8473C23.7911 18.8473 18.6439 24.3641 18.6439 32.8997V58.9408C18.6439 67.4796 23.7911 72.9932 31.7567 72.9932H59.0883C67.0729 72.9932 72.2328 67.4796 72.2328 58.9408V32.8997C72.2328 24.3641 67.0729 18.8473 59.0883 18.8473H31.7567ZM59.0883 77.7848H31.7567C21.0769 77.7848 13.9043 70.2108 13.9043 58.9408V32.8997C13.9043 21.6297 21.0769 14.0557 31.7567 14.0557H59.0883C69.784 14.0557 76.9723 21.6297 76.9723 32.8997V58.9408C76.9723 70.2108 69.784 77.7848 59.0883 77.7848V77.7848Z" fill="#A4646E"/>
</g>
<path fill-rule="evenodd" clip-rule="evenodd" d="M24.2722 62.5496C23.6844 62.5496 23.0999 62.3324 22.6417 61.8915C21.6907 60.9843 21.6527 59.4638 22.5533 58.5086L27.3813 53.356C29.9375 50.612 34.2506 50.4778 36.9774 53.0653L40.0044 56.1703C40.8481 57.0328 42.2194 57.0488 43.0662 56.2054C43.3853 55.8253 50.2672 47.376 50.2672 47.376C51.5753 45.7724 53.4206 44.7821 55.4712 44.5777C57.5251 44.3956 59.5189 44.9993 61.1082 46.3186C61.2441 46.4304 61.3673 46.539 68.306 53.7425C69.2192 54.6881 69.2034 56.2054 68.265 57.1286C67.3297 58.0582 65.8257 58.0295 64.9125 57.0839C64.9125 57.0839 58.4382 50.366 57.9769 49.9124C57.4871 49.5067 56.7004 49.2703 55.9262 49.347C55.1395 49.4268 54.4317 49.807 53.9293 50.4235C46.5861 59.4286 46.4976 59.5149 46.3776 59.6331C43.6665 62.3228 39.2903 62.2781 36.6267 59.5308C36.6267 59.5308 33.6881 56.5153 33.6376 56.4546C32.9077 55.771 31.6059 55.8157 30.8254 56.6495L25.991 61.8021C25.5234 62.3004 24.8978 62.5496 24.2722 62.5496V62.5496Z" fill="#A4646E"/>
<path fill-rule="evenodd" clip-rule="evenodd" d="M34.6231 33.6344C32.8758 33.6344 31.4539 35.0719 31.4539 36.8417C31.4539 38.6114 32.8758 40.0521 34.6263 40.0521C36.3768 40.0521 37.8018 38.6114 37.8018 36.8417C37.8018 35.0751 36.3768 33.6376 34.6231 33.6344M34.6263 44.8437C30.2627 44.8437 26.7144 41.2532 26.7144 36.8417C26.7144 32.4301 30.2627 28.8428 34.6263 28.8428C38.993 28.846 42.5414 32.4365 42.5414 36.8417C42.5414 41.2532 38.9899 44.8437 34.6263 44.8437" fill="#A4646E"/>
</svg>
