<svg width="91" height="92" viewBox="0 0 91 92" fill="none" xmlns="http://www.w3.org/2000/svg">
<path fill-rule="evenodd" clip-rule="evenodd" d="M44.7091 22.0417C44.4216 22.0417 43.7138 22.1215 43.3378 22.8818L37.5681 34.5447C36.655 36.3879 34.895 37.6689 32.8602 37.9628L19.9432 39.8443C19.0901 39.9689 18.7994 40.6078 18.7109 40.8761C18.6319 41.1349 18.5055 41.7929 19.0932 42.3615L28.4334 51.4338C29.9216 52.8808 30.5978 54.9668 30.2439 57.0081L28.0447 69.8178C27.9089 70.6196 28.4049 71.086 28.6261 71.2457C28.8599 71.4246 29.4856 71.7792 30.2597 71.3703L41.8085 65.3168C43.6285 64.3681 45.7961 64.3681 47.6097 65.3168L59.1554 71.3671C59.9327 71.7728 60.5583 71.4182 60.7953 71.2457C61.0164 71.086 61.5125 70.6196 61.3766 69.8178L59.1712 57.0081C58.8173 54.9668 59.4935 52.8808 60.9817 51.4338L70.3218 42.3615C70.9127 41.7929 70.7863 41.1317 70.7042 40.8761C70.6188 40.6078 70.3281 39.9689 69.475 39.8443L56.5581 37.9628C54.5264 37.6689 52.7664 36.3879 51.8532 34.5415L46.0773 22.8818C45.7044 22.1215 44.9967 22.0417 44.7091 22.0417ZM29.5332 76.3472C28.2283 76.3472 26.9328 75.9319 25.8237 75.1142C23.9089 73.6958 22.9705 71.3543 23.3781 68.9968L25.5773 56.1871C25.6594 55.7111 25.4983 55.2288 25.1507 54.8901L15.8106 45.8179C14.0917 44.1536 13.4755 41.6939 14.2023 39.4099C14.9353 37.1003 16.8754 35.4488 19.2673 35.1038L32.1842 33.2222C32.6835 33.1519 33.1132 32.8421 33.328 32.4013L39.1009 20.7351C40.1657 18.5853 42.3143 17.25 44.7094 17.25C47.1044 17.25 49.253 18.5853 50.3179 20.7351L56.0938 32.3981C56.3119 32.8421 56.7384 33.1519 57.2345 33.2222L70.1514 35.1038C72.5434 35.4488 74.4834 37.1003 75.2165 39.4099C75.9432 41.6939 75.3239 44.1536 73.605 45.8179L64.2649 54.8901C63.9173 55.2288 63.7593 55.7111 63.8415 56.1839L66.0438 68.9968C66.4483 71.3575 65.5098 73.699 63.5919 75.1142C61.6486 76.5549 59.1177 76.7497 56.9722 75.6189L45.4298 69.5718C44.9779 69.3354 44.4376 69.3354 43.9858 69.5718L32.4433 75.6221C31.5207 76.1076 30.5254 76.3472 29.5332 76.3472Z" fill="#A4646E"/>
</svg>
