<svg width="26" height="24" viewBox="0 0 26 24" fill="none" xmlns="http://www.w3.org/2000/svg">
<path d="M9.98884 13.8753C10.5937 13.8753 11.0841 13.409 11.0841 12.8337C11.0841 12.2584 10.5937 11.792 9.98884 11.792C9.38393 11.792 8.89355 12.2584 8.89355 12.8337C8.89355 13.409 9.38393 13.8753 9.98884 13.8753Z" fill="#F5F5F3"/>
<path d="M20.3022 9.15033L19.4961 10.8253C19.575 11.2087 19.6275 11.6003 19.6275 12.0003C19.6275 15.6753 16.4819 18.667 12.6177 18.667C8.75357 18.667 5.60792 15.6753 5.60792 12.0003C5.60792 11.9587 5.61668 11.917 5.60792 11.8837C7.88611 11.067 9.71742 9.39199 10.6375 7.25866C12.2497 9.13366 14.6944 10.3337 17.437 10.3337C17.8313 10.3337 18.2168 10.3003 18.6023 10.2503L18.0766 9.15033L17.3055 7.54199L15.6144 6.80866L13.1697 5.75033L15.6144 4.69199L16.2365 4.42533C15.1325 3.94199 13.9058 3.66699 12.6177 3.66699C7.78096 3.66699 3.85547 7.40033 3.85547 12.0003C3.85547 16.6003 7.78096 20.3337 12.6177 20.3337C17.4545 20.3337 21.38 16.6003 21.38 12.0003C21.38 10.7753 21.0908 9.60866 20.5914 8.55866L20.3022 9.15033Z" fill="#F5F5F3"/>
<path d="M15.2466 13.8753C15.8516 13.8753 16.3419 13.409 16.3419 12.8337C16.3419 12.2584 15.8516 11.792 15.2466 11.792C14.6417 11.792 14.1514 12.2584 14.1514 12.8337C14.1514 13.409 14.6417 13.8753 15.2466 13.8753Z" fill="#F5F5F3"/>
<path d="M20.1532 6.66634L19.1893 8.66634L18.2255 6.66634L16.1226 5.74967L18.2255 4.83301L19.1893 2.83301L20.1532 4.83301L22.2561 5.74967L20.1532 6.66634Z" fill="#F5F5F3"/>
</svg>
