<svg width="24" height="24" viewBox="0 0 24 24" fill="none" xmlns="http://www.w3.org/2000/svg">
<path d="M11.9998 7.83333V4.5H3.6665V19.5H20.3332V7.83333H11.9998ZM6.99984 17.8333H5.33317V16.1667H6.99984V17.8333ZM6.99984 14.5H5.33317V12.8333H6.99984V14.5ZM6.99984 11.1667H5.33317V9.5H6.99984V11.1667ZM6.99984 7.83333H5.33317V6.16667H6.99984V7.83333ZM10.3332 17.8333H8.6665V16.1667H10.3332V17.8333ZM10.3332 14.5H8.6665V12.8333H10.3332V14.5ZM10.3332 11.1667H8.6665V9.5H10.3332V11.1667ZM10.3332 7.83333H8.6665V6.16667H10.3332V7.83333ZM18.6665 17.8333H11.9998V16.1667H13.6665V14.5H11.9998V12.8333H13.6665V11.1667H11.9998V9.5H18.6665V17.8333ZM16.9998 11.1667H15.3332V12.8333H16.9998V11.1667ZM16.9998 14.5H15.3332V16.1667H16.9998V14.5Z" fill="#F5F5F3"/>
</svg>
